<svg width="32" height="32" viewBox="0 0 32 32" xmlns="http://www.w3.org/2000/svg" aria-label="Cafeteria Dev Favicon" role="img">
  <!-- Background -->
  <rect width="32" height="32" rx="6" fill="#1A1716"/>

  <!-- Cup -->
  <path d="M9 20c0-2.5 2-4.5 4.5-4.5h6c2.5 0 4.5 2 4.5 4.5 0 2.2-1.8 4-4 4H13c-2.2 0-4-1.8-4-4Z" fill="#D4AF37"/>
  <rect x="10" y="13" width="10" height="6" rx="3" fill="#D4AF37" opacity="0.9"/>
  <path d="M22 15.5c1 0 1.8.8 1.8 1.8s-.8 1.8-1.8 1.8" stroke="#D4AF37" stroke-width="1.4" stroke-linecap="round"/>

  <!-- Steam -->
  <path d="M13 9c0 1.8-1 2.2-1 3.4M18 9c0 1.8-1 2.2-1 3.4" stroke="#F8E08E" stroke-width="1.2" stroke-linecap="round" opacity="0.85"/>

  <!-- Base line -->
  <rect x="9" y="24.5" width="14" height="1.2" rx="0.6" fill="#B8892D"/>

  <!-- Subtle highlight -->
  <rect x="4" y="4" width="24" height="24" rx="6" fill="#FFFFFF" opacity="0.02"/>
</svg>
